HIERARCHY
ROOT Hips
{
   OFFSET 0.00000 0.00000 0.00000
   CHANNELS 6 Xposition Yposition Zposition Zrotation Xrotation Yrotation
   JOINT Spine
   {
      OFFSET 0.000000 11.890501 0.000000
      CHANNELS 3 Zrotation Xrotation Yrotation
      JOINT Spine1
      {
         OFFSET -0.000000 25.657401 0.127660
         CHANNELS 3 Zrotation Xrotation Yrotation
         JOINT HEad
         {
            OFFSET 0.000000 8.734161 0.011340
            CHANNELS 3 Zrotation Xrotation Yrotation
            End Site
            {
               OFFSET -0.290000 12.774200 2.513950
            }
         }
         JOINT LeftShoulder1
         {
            OFFSET 8.990000 -0.362250 -0.220000
            CHANNELS 3 Zrotation Xrotation Yrotation
            JOINT LeftArm
            {
               OFFSET 10.282700 -0.003380 0.322120
               CHANNELS 3 Zrotation Xrotation Yrotation
               JOINT LeftForeArm
               {
                  OFFSET 32.766900 0.099140 -1.424340
                  CHANNELS 3 Zrotation Xrotation Yrotation
                  JOINT LeftHand
                  {
                     OFFSET 27.564301 0.085360 1.022160
                     CHANNELS 3 Zrotation Xrotation Yrotation
                     End Site
                     {
                        OFFSET 16.744301 -0.600000 1.502910
                     }
                  }
               }
            }
         }
         JOINT RightShoulder
         {
            OFFSET -8.990000 -0.362250 -0.220000
            CHANNELS 3 Zrotation Xrotation Yrotation
            JOINT RightArm
            {
               OFFSET -10.282700 -0.003380 0.322120
               CHANNELS 3 Zrotation Xrotation Yrotation
               JOINT RightForeArm
               {
                  OFFSET -32.897098 0.099140 -1.424340
                  CHANNELS 3 Zrotation Xrotation Yrotation
                  JOINT RightHand
                  {
                     OFFSET -27.492101 0.085360 1.022160
                     CHANNELS 3 Zrotation Xrotation Yrotation
                     End Site
                     {
                        OFFSET -16.631201 -0.600000 1.502910
                     }
                  }
               }
            }
         }
      }
   }
   JOINT LeftUpLeg
   {
      OFFSET 8.945800 -8.667070 0.101650
      CHANNELS 3 Zrotation Xrotation Yrotation
      JOINT LeftLeg
      {
         OFFSET 0.000000 -44.422697 1.372700
         CHANNELS 3 Zrotation Xrotation Yrotation
         JOINT LeftFoot
         {
            OFFSET -0.253550 -42.092399 -1.460590
            CHANNELS 3 Zrotation Xrotation Yrotation
            JOINT LeftToes
            {
               OFFSET -0.040000 -4.415090 8.499099
               CHANNELS 3 Zrotation Xrotation Yrotation
               End Site
               {
                  OFFSET 0.080000 -0.047450 9.779790
               }
            }
         }
      }
   }
   JOINT RightUpLeg
   {
      OFFSET -8.945800 -8.667070 0.101650
      CHANNELS 3 Zrotation Xrotation Yrotation
      JOINT RightLeg
      {
         OFFSET 0.000000 -44.422697 1.372700
         CHANNELS 3 Zrotation Xrotation Yrotation
         JOINT RightFoot
         {
            OFFSET 0.253550 -42.092399 -1.460590
            CHANNELS 3 Zrotation Xrotation Yrotation
            JOINT RightToes
            {
               OFFSET 0.040000 -4.415090 8.499099
               CHANNELS 3 Zrotation Xrotation Yrotation
               End Site
               {
                  OFFSET -0.080000 -0.137450 9.779790
               }
            }
         }
      }
   }
}
MOTION
Frames: 16
Frame Time: 0.016670
57.641858 84.578856 27.562830 35.596388 48.110794 86.760813 -26.181621 27.468892 24.498690 -10.944145 49.602084 10.629002 -25.364652 -3.238466 3.265304 2.739998 -5.051675 -41.733709 50.344020 -70.314209 55.666076 -34.931828 -21.179167 -53.828338 -76.496548 -55.037231 -79.852739 -55.072519 48.471202 86.419023 143.797106 88.507565 147.385401 1.034510 184.500867 77.727450 5.799387 -13.910827 42.987985 27.847921 5.737039 42.470147 -23.095165 45.319599 143.776889 -15.303408 32.366299 -15.619058 37.290418 -24.707745 -73.853668 -24.271965 16.869976 14.165047 6.207102 27.948413 -18.487755 27.815973 31.689899 16.587017 -113.242747 -12.441743 -37.432360
56.927690 86.581601 26.988995 27.712096 45.123587 89.947103 -28.924710 26.163685 26.525506 -9.947616 50.180300 8.366639 -23.485522 -4.204668 1.965633 8.630118 0.497968 -39.175274 64.976184 -74.899609 73.280765 -24.906368 -21.105015 -53.892030 -73.745778 -55.179237 -76.625153 -51.901108 48.143866 83.939528 139.057911 86.077766 151.100559 2.275745 182.326490 76.520194 5.454705 -15.126472 45.052399 28.321564 4.811975 47.835950 -24.282362 42.190014 133.843499 -14.282246 31.170412 -9.754898 28.712339 -32.103798 -66.760940 -21.618027 10.568137 11.423987 5.098739 26.821830 -17.724474 29.749350 33.739967 15.567099 -115.460304 -13.417489 -36.518098
56.272749 88.900736 26.344485 24.786634 44.519135 92.035775 -30.825959 25.370464 28.386203 -7.651593 49.385741 6.531368 -22.442649 -4.737205 1.120411 6.371194 13.245555 -35.678542 78.073652 -81.840775 75.114848 -15.203841 -22.170200 -52.647207 -75.268084 -53.577790 -83.951542 -49.026497 48.118044 81.548641 134.274238 83.093124 155.890735 3.433966 178.987102 74.856763 4.280290 -16.284218 46.415817 24.503527 3.620837 66.541499 -6.418216 46.349131 94.375558 -9.297276 24.798848 -3.318278 29.309219 -28.948425 -55.992624 -20.652294 8.236143 9.112980 2.815995 25.577404 -17.063242 31.042376 35.813779 13.592958 -116.997384 -13.888185 -35.250436
55.676898 91.208933 25.511119 23.768818 43.974810 95.324511 -33.083326 25.235372 30.910936 -5.761936 48.063990 5.062839 -21.649487 -4.429258 0.627448 7.008635 25.311231 -32.085135 85.975539 -85.449368 73.554020 -6.218986 -21.870983 -50.667545 -76.211374 -51.708780 -89.155135 -48.666976 47.455342 81.028187 127.843656 80.783318 163.115081 5.149004 174.723356 73.564798 2.533623 -17.691286 46.700059 20.020801 -2.620360 94.498843 35.591778 36.569629 19.791467 -4.015258 22.779623 2.425671 28.086684 -26.554862 -47.681574 -20.280175 9.367871 6.786946 2.132202 23.364528 -15.996820 33.553731 37.735395 12.269515 -117.687424 -13.029116 -33.534439
55.135211 93.454140 24.716627 20.717191 43.139465 96.203542 -34.953288 22.626458 34.615406 -5.509374 47.354890 3.624436 -20.706154 -4.433110 0.468731 7.034912 34.549119 -28.779661 86.559513 -88.265688 67.501141 2.410611 -20.943986 -49.811477 -75.571781 -50.457541 -95.512976 -48.311653 47.543950 81.479628 122.284811 77.254098 169.413840 5.943320 169.993095 71.234618 0.099745 -19.341677 45.214230 16.942655 -3.437837 105.464671 36.903215 31.813105 10.520059 -0.343776 20.368683 8.785788 26.024185 -26.296768 -40.026360 -20.956380 6.957206 4.553892 1.446042 22.293727 -14.949501 35.838768 39.447122 10.787857 -117.820217 -12.056700 -31.848848
54.548887 95.480574 23.748357 17.768973 41.957125 97.340468 -36.446057 18.277921 38.381787 -4.486482 44.810242 3.071093 -18.084382 -5.519361 0.171891 6.907971 42.810427 -28.464842 86.592114 -88.114563 61.937351 8.990908 -18.401832 -50.216913 -73.528660 -49.361292 -104.501266 -48.990587 45.845066 84.001751 116.852256 73.313400 175.163767 3.381199 165.138879 64.722162 -3.448272 -21.383820 39.478179 14.641899 -5.137455 108.617739 37.357464 30.878749 8.657598 0.217128 19.813781 12.046861 26.184664 -25.404663 -34.244571 -20.840755 4.275836 2.769554 1.089863 21.328145 -13.500969 36.986318 41.782781 8.519044 -118.277115 -10.807916 -28.890150
54.095496 96.863230 22.840681 13.908184 40.410896 98.582285 -36.543742 16.871281 39.835248 -4.252498 44.502955 -0.058624 -16.912704 -6.072109 0.320646 7.368813 47.792616 -30.160835 92.560565 -86.226487 65.119495 16.047948 -17.486691 -51.269521 -72.363368 -53.150043 -106.930525 -48.837154 45.837577 85.052371 112.616098 68.548209 179.203701 4.742534 161.871891 61.813594 -6.432092 -23.971061 37.848216 11.721954 -8.331377 105.459644 34.919448 29.566079 10.837874 -0.273955 21.577017 11.824517 27.239273 -23.662342 -35.309127 -21.350215 1.035621 1.031615 1.526859 19.563139 -11.732648 37.622854 43.963397 6.508457 -120.087157 -6.732832 -30.996088
53.615903 97.810687 21.862135 11.830406 38.472045 101.250301 -37.384941 15.580917 40.473409 -2.527973 45.188784 -3.116574 -18.687483 -6.854850 1.255156 10.189771 49.463031 -30.006390 100.964580 -84.501434 72.488156 21.598339 -17.823220 -49.545649 -70.124132 -57.006019 -109.877014 -46.566485 47.838737 86.158649 109.096057 65.005308 181.995991 11.301771 158.231495 64.266800 -8.137405 -25.870036 47.222203 9.656951 -9.999274 99.687704 32.434687 28.518434 10.706701 -3.096880 26.570191 9.459779 30.342487 -21.804081 -40.301856 -21.266369 -0.205275 0.181613 1.725583 18.088159 -9.729934 37.692235 46.113366 4.614174 -121.651953 -4.293654 -31.223704
53.013100 98.585013 20.977227 10.303264 36.510045 103.027134 -37.961372 14.988131 41.265892 -1.236948 45.610753 -5.034747 -19.578650 -7.163072 2.269327 14.436906 52.447793 -31.382407 110.441495 -80.988989 81.225457 25.151203 -17.131533 -47.114877 -67.803431 -61.016197 -111.195268 -45.635216 47.239070 86.086017 106.117753 60.733530 185.771064 12.589470 153.193684 59.340274 -9.052809 -26.211370 51.098838 6.977550 -10.605127 92.784479 30.796654 27.157800 9.456413 -8.052679 30.053799 6.221474 32.594366 -21.719969 -45.612099 -19.337618 -1.296447 -3.004424 1.469669 17.421376 -10.509002 37.986363 45.281842 1.843071 -122.148494 -1.850882 -31.738786
52.230763 99.363526 20.250032 9.520547 32.768983 105.926706 -36.659329 15.286394 40.914394 -0.338322 46.940601 -6.145683 -20.010673 -7.532025 3.420130 19.712793 54.311380 -34.487541 119.619794 -78.065661 91.503580 26.948616 -18.294100 -43.971764 -65.928012 -64.568531 -112.539886 -44.729290 46.002946 85.228562 104.184632 55.766165 188.767045 13.150053 147.524341 54.491205 -9.683317 -25.064603 53.450824 6.666007 -10.513209 85.816805 28.356075 27.085841 9.470746 -14.878165 32.316367 3.851018 33.239297 -25.260259 -51.714989 -16.397884 -1.512165 -6.302333 1.984805 16.946516 -11.260357 38.664468 44.138202 -0.304480 -122.749291 -1.723263 -30.147577
51.419033 100.133494 19.588500 9.603334 28.111558 109.324800 -34.280921 15.925161 40.537063 0.030611 47.956005 -6.657418 -20.720940 -7.668797 4.804962 25.588776 55.800221 -38.341335 128.839620 -74.567695 100.682924 27.481818 -20.170573 -39.879613 -64.602388 -71.668670 -108.876316 -44.152802 44.184473 84.334299 103.276893 51.301090 192.138139 14.600738 141.414900 51.487708 -11.197575 -24.385022 50.387695 8.440679 -10.556008 79.473595 25.775722 28.185414 11.303096 -19.315509 33.744734 3.359466 33.029985 -28.520152 -55.571833 -12.966333 -1.517473 -9.096707 2.939528 16.616102 -11.873820 39.346503 43.306347 -2.214787 -123.314954 -1.073602 -29.661807
50.598759 100.616949 18.825177 9.505879 23.528187 111.502428 -32.084192 19.581935 39.372014 1.074539 47.312314 -7.119926 -20.505725 -8.199160 6.220752 34.277636 59.720913 -43.033101 140.117233 -72.307354 109.821833 28.227253 -17.671812 -38.206910 -64.243926 -73.866085 -107.320167 -45.161211 40.033293 82.492190 104.005688 46.906836 196.402691 12.211366 135.276486 44.586782 -12.459114 -22.154846 43.929806 8.781436 -10.830405 70.879967 23.536533 26.806066 13.884308 -23.219081 34.879181 3.551438 34.908417 -21.042057 -47.300839 -9.678697 -1.977331 -11.400959 4.457447 15.547551 -12.614637 40.128061 41.677097 -3.222700 -123.930982 -1.402098 -28.720088
49.817228 100.778569 17.988792 9.982380 20.307366 114.927181 -29.970033 21.537716 37.769023 2.814693 46.380697 -7.848107 -20.886268 -10.239909 7.956592 41.659055 62.741284 -45.863088 148.712616 -72.540127 119.327640 28.985544 -14.723613 -36.338082 -64.286492 -77.082824 -103.942898 -47.235970 38.362823 81.975445 105.705831 43.869639 198.404551 12.605867 130.590553 41.916444 -14.139053 -21.488533 40.438958 7.868597 -10.197537 61.311152 21.529878 24.942435 16.997534 -26.682766 35.691276 3.576987 30.625817 -30.269804 -57.824593 -7.699286 -1.317448 -12.863436 5.883518 14.203448 -13.201757 41.039390 39.899663 -3.636969 -124.349290 -1.887527 -28.364778
49.088339 100.694855 17.137574 12.996447 20.405863 119.196213 -24.657929 17.283256 33.435852 6.291019 45.298327 -9.874241 -22.545795 -14.423729 10.405921 50.032047 66.473648 -49.027221 156.871454 -72.971118 127.336310 29.430783 -10.010852 -36.481690 -64.464152 -77.584303 -102.889075 -49.599020 39.191854 83.454987 109.773079 41.907408 197.303292 12.628479 126.437798 39.610699 -15.965277 -21.240041 38.944103 5.245989 -6.220745 51.631241 20.198968 22.618817 21.482477 -28.704604 36.425911 4.808092 34.169968 -19.842791 -45.457422 -8.366437 3.019410 -13.111435 7.868943 13.189405 -13.773999 41.436053 38.153245 -4.309100 -124.599548 -2.372158 -27.822169
48.682956 100.564955 16.352547 13.342043 18.762589 122.225935 -19.375850 16.363057 30.260152 7.050271 45.733048 -11.925180 -23.623324 -15.415807 12.895650 54.908502 69.247798 -52.588669 164.982605 -72.989847 134.975931 30.476096 -7.162947 -37.148911 -64.318785 -78.931749 -101.421260 -50.712386 39.213499 84.302477 112.655412 41.312669 196.766371 13.101576 121.489872 38.173053 -18.383394 -22.112493 37.669497 4.255174 -4.102109 41.148188 17.714408 20.304558 26.004315 -29.933960 37.467464 5.572401 33.692545 -19.775802 -45.809792 -8.330450 4.422897 -13.506755 10.488016 11.624150 -14.483394 41.583879 36.062292 -4.716284 -124.561682 -2.991164 -27.553598
48.505887 100.508927 15.557649 13.194584 16.869322 125.147070 -14.608173 15.658040 27.648553 7.012101 46.021675 -13.471390 -24.467689 -14.799589 15.456076 58.061089 70.812956 -55.720362 173.204622 -72.333254 142.043373 31.403499 -5.353759 -38.116321 -63.822497 -80.028486 -100.894735 -52.340884 39.667222 85.277152 113.856904 40.488436 196.997136 14.027725 118.468893 37.579025 -19.426339 -21.856626 37.915616 4.510795 -2.362204 30.958270 14.661544 18.426855 31.936233 -30.953594 37.337239 6.124271 34.213575 -15.946965 -40.974407 -7.860843 4.728849 -14.091169 13.159891 9.943776 -15.393172 41.416286 34.010285 -5.365681 -123.872201 -3.415421 -27.775847
